<svg width="100" height="100" viewBox="0 0 100 100" fill="none" xmlns="http://www.w3.org/2000/svg">
  <path d="M50 44C48 34 42 22 34 16" stroke="#FF4F00" stroke-width="4" stroke-linecap="round"/>
  <circle cx="34" cy="16" r="6" fill="#FF4F00"/>
  <path d="M54 52C62 56 74 60 82 58" stroke="#FF4F00" stroke-width="4" stroke-linecap="round"/>
  <circle cx="82" cy="58" r="6" fill="#FF4F00"/>
  <path d="M46 54C40 62 30 74 22 80" stroke="#FF4F00" stroke-width="4" stroke-linecap="round"/>
  <circle cx="22" cy="80" r="6" fill="#FF4F00"/>
  <path d="M38 20C56 18 72 30 80 52" stroke="#FF4F00" stroke-width="3" stroke-linecap="round" opacity="0.5"/>
  <path d="M78 62C68 78 48 86 26 78" stroke="#FF4F00" stroke-width="3" stroke-linecap="round" opacity="0.5"/>
  <path d="M20 74C14 52 22 30 36 20" stroke="#FF4F00" stroke-width="3" stroke-linecap="round" opacity="0.5"/>
  <circle cx="50" cy="50" r="8" fill="#FF4F00"/>
</svg>
